Coordinates
version=1
nRows=9
nColumns=26
inDegrees=yes

Units are S.I. units (second, meters, Newtons, ...)
Angles are in degrees.

endheader
time	pelvis_tilt	pelvis_list	pelvis_rotation	pelvis_tx	pelvis_ty	pelvis_tz	hip_flexion_r	hip_adduction_r	hip_rotation_r	knee_angle_r	knee_angle_r_beta	ankle_angle_r	subtalar_angle_r	mtp_angle_r	hip_flexion_l	hip_adduction_l	hip_rotation_l	knee_angle_l	knee_angle_l_beta	ankle_angle_l	subtalar_angle_l	mtp_angle_l	lumbar_extension	lumbar_bending	lumbar_rotation
      0.55000000	      3.97917676	      0.44496546	      3.55785701	      0.64192395	      0.99189386	      0.16643691	     16.85138872	     -0.92557864	     -5.09759020	      4.87660847	      4.87660847	     -1.81872968	      0.00000000	      0.00000000	    -14.65802817	      0.49685467	     -5.86394398	     12.50340117	     12.50340117	     15.65555071	      0.00000000	      0.00000000	    -17.65295779	      0.02116327	     -3.18112763
      0.55833333	      4.11454408	      0.29214229	      3.67294320	      0.65197618	      0.99095070	      0.16733480	     16.74041456	     -0.62923998	     -5.00283291	      5.93348341	      5.93348341	     -2.35671600	      0.00000000	      0.00000000	    -15.16041055	      0.13026964	     -5.96047604	     13.02961751	     13.02961751	     15.77487832	      0.00000000	      0.00000000	    -17.67159430	      0.31494453	     -3.31891055
      0.56666667	      4.28266287	      0.15904416	      3.78487644	      0.66214308	      0.99030741	      0.16830080	     16.50000206	     -0.35246515	     -4.74022773	      6.77632439	      6.77632439	     -2.76521874	      0.00000000	      0.00000000	    -15.62969891	     -0.22255959	     -6.11242545	     13.66531607	     13.66531607	     15.80587034	      0.00000000	      0.00000000	    -17.71425728	      0.58275689	     -3.46945320
      0.57500000	      4.45115425	     -0.02025052	      3.86342280	      0.67244329	      0.98975547	      0.16932451	     16.24771962	     -0.03014691	     -4.55863164	      7.52875795	      7.52875795	     -3.49655083	      0.00000000	      0.00000000	    -16.02264850	     -0.64735166	     -6.37971129	     14.45507097	     14.45507097	     15.81924839	      0.00000000	      0.00000000	    -17.73939115	      0.90010009	     -3.55023245
      0.58333333	      4.53815239	     -0.12476156	      3.89745663	      0.68280024	      0.98914646	      0.17031364	     16.04544053	      0.20299855	     -4.41338711	      8.18914393	      8.18914393	     -4.61695926	      0.00000000	      0.00000000	    -16.26140711	     -0.99206482	     -6.53234745	     15.40987156	     15.40987156	     15.80227393	      0.00000000	      0.00000000	    -17.66326530	      1.13022934	     -3.56640966
      0.59166667	      4.63261130	     -0.25597613	      3.96884904	      0.69321514	      0.98863122	      0.17118475	     15.83360413	      0.40122966	     -4.48936560	      8.89019794	      8.89019794	     -5.48384723	      0.00000000	      0.00000000	    -16.43057419	     -1.36935166	     -6.52658108	     16.48979118	     16.48979118	     15.69786017	      0.00000000	      0.00000000	    -17.58486370	      1.41090637	     -3.59819408
      0.60000000	      4.82705430	     -0.33564513	      3.98554807	      0.70383696	      0.98840569	      0.17208319	     15.46222486	      0.53821042	     -4.65740307	      9.57118477	      9.57118477	     -6.12715282	      0.00000000	      0.00000000	    -16.63461732	     -1.69283960	     -6.54328894	     17.71845922	     17.71845922	     15.47656629	      0.00000000	      0.00000000	    -17.60519270	      1.62664260	     -3.56041734
      0.60833333	      5.02478607	     -0.44773880	      3.95928463	      0.71449111	      0.98816350	      0.17271820	     15.04923367	      0.69338800	     -4.61736904	     10.28442001	     10.28442001	     -6.48393341	      0.00000000	      0.00000000	    -16.70840940	     -2.02318818	     -6.54842143	     19.17100617	     19.17100617	     15.25080464	      0.00000000	      0.00000000	    -17.62192141	      1.91081900	     -3.42996462
      0.61666667	      5.29750262	     -0.54330765	      3.90362865	      0.72510674	      0.98848010	      0.17383736	     14.45595341	      0.89249389	     -4.21135533	     10.85851284	     10.85851284	     -6.74933742	      0.00000000	      0.00000000	    -16.75135240	     -2.37771737	     -6.39237393	     20.72416443	     20.72416443	     14.68623153	      0.00000000	      0.00000000	    -17.75231509	      2.11172994	     -3.24080902
